<?xml version="1.0" encoding="UTF-8"?>
<svg id="Capa_1" xmlns="http://www.w3.org/2000/svg" viewBox="0 0 100 100">
  <defs>
    <style>
      .cls-1 {
        fill: #4f88a6;
      }
    </style>
  </defs>
  <path class="cls-1" d="M50,58.57c-15.47,0-28.05-12.58-28.05-28.05S34.53,2.46,50,2.46s28.05,12.58,28.05,28.05-12.58,28.05-28.05,28.05ZM50,8.92c-11.9,0-21.59,9.69-21.59,21.59s9.69,21.59,21.59,21.59,21.59-9.69,21.59-21.59-9.69-21.59-21.59-21.59Z"/>
  <path class="cls-1" d="M83.9,97.54h0c-1.81,0-3.27-1.46-3.27-3.27v-12.42c0-1.8-1.08-3.42-2.74-4.11l-13.96-5.83c-.76-.32-1.63-.19-2.27.34l-6.76,5.58c-2.84,2.35-6.96,2.35-9.8,0l-6.76-5.58c-.64-.53-1.51-.66-2.27-.34l-13.96,5.83c-1.66.69-2.74,2.31-2.74,4.11v12.42c0,1.81-1.46,3.27-3.27,3.27h0c-1.81,0-3.27-1.46-3.27-3.27v-12.42c0-4.45,2.65-8.43,6.76-10.14l13.96-5.83c3.01-1.26,6.44-.74,8.95,1.33l6.76,5.58c.43.35,1.05.35,1.48,0l6.76-5.58c2.51-2.08,5.94-2.59,8.95-1.33l13.96,5.83c4.11,1.71,6.76,5.69,6.76,10.14v12.42c0,1.81-1.46,3.27-3.27,3.27Z"/>
</svg>