<?xml version="1.0" encoding="UTF-8"?>
<svg id="Capa_1" xmlns="http://www.w3.org/2000/svg" xmlns:xlink="http://www.w3.org/1999/xlink" viewBox="0 0 100 100">
  <defs>
    <style>
      .cls-1 {
        filter: url(#drop-shadow-91);
      }

      .cls-1, .cls-2 {
        fill: #3272a6;
      }

      .cls-3 {
        filter: url(#drop-shadow-89);
      }

      .cls-3, .cls-4 {
        fill: #5693b1;
      }

      .cls-5 {
        filter: url(#drop-shadow-93);
      }

      .cls-5, .cls-6 {
        fill: #9ec4d1;
      }

      .cls-4 {
        filter: url(#drop-shadow-92);
      }

      .cls-6 {
        filter: url(#drop-shadow-90);
      }

      .cls-2 {
        filter: url(#drop-shadow-88);
      }
    </style>
    <filter id="drop-shadow-88" x="-1.87" y="19.11" width="60.96" height="72.48" filterUnits="userSpaceOnUse">
      <feOffset dx="0" dy="0"/>
      <feGaussianBlur result="blur" stdDeviation="3"/>
      <feFlood flood-color="#1d1d1b" flood-opacity=".25"/>
      <feComposite in2="blur" operator="in"/>
      <feComposite in="SourceGraphic"/>
    </filter>
    <filter id="drop-shadow-89" x="4.85" y="13.35" width="53.76" height="75.12" filterUnits="userSpaceOnUse">
      <feOffset dx="0" dy="0"/>
      <feGaussianBlur result="blur-2" stdDeviation="3"/>
      <feFlood flood-color="#1d1d1b" flood-opacity=".25"/>
      <feComposite in2="blur-2" operator="in"/>
      <feComposite in="SourceGraphic"/>
    </filter>
    <filter id="drop-shadow-90" x="15.17" y="8.55" width="43.44" height="79.92" filterUnits="userSpaceOnUse">
      <feOffset dx="0" dy="0"/>
      <feGaussianBlur result="blur-3" stdDeviation="3"/>
      <feFlood flood-color="#1d1d1b" flood-opacity=".25"/>
      <feComposite in2="blur-3" operator="in"/>
      <feComposite in="SourceGraphic"/>
    </filter>
    <filter id="drop-shadow-91" x="40.85" y="19.11" width="60.96" height="72.48" filterUnits="userSpaceOnUse">
      <feOffset dx="0" dy="0"/>
      <feGaussianBlur result="blur-4" stdDeviation="3"/>
      <feFlood flood-color="#1d1d1b" flood-opacity=".25"/>
      <feComposite in2="blur-4" operator="in"/>
      <feComposite in="SourceGraphic"/>
    </filter>
    <filter id="drop-shadow-92" x="41.33" y="13.35" width="53.76" height="75.12" filterUnits="userSpaceOnUse">
      <feOffset dx="0" dy="0"/>
      <feGaussianBlur result="blur-5" stdDeviation="3"/>
      <feFlood flood-color="#1d1d1b" flood-opacity=".25"/>
      <feComposite in2="blur-5" operator="in"/>
      <feComposite in="SourceGraphic"/>
    </filter>
    <filter id="drop-shadow-93" x="41.33" y="8.55" width="43.44" height="79.92" filterUnits="userSpaceOnUse">
      <feOffset dx="0" dy="0"/>
      <feGaussianBlur result="blur-6" stdDeviation="3"/>
      <feFlood flood-color="#1d1d1b" flood-opacity=".25"/>
      <feComposite in2="blur-6" operator="in"/>
      <feComposite in="SourceGraphic"/>
    </filter>
  </defs>
  <path class="cls-2" d="M49.98,81.66c-.48-6.04-5.26-7.99-8.08-9.14-5.09-2.07-8.68-2.9-14.18-2.98-2.13-.03-4.05-.6-5.66-1.98-1.66-1.42-2.55-3.18-2.71-5.29-.03-.44-.02-.88-.02-1.33,0-12.05,0-19.73,0-31.78,0-.32,0-.65,0-.99-1.12,0-8.71-.13-9.72.03-1.42.23-2.36,1.52-2.37,2.99,0,5.92,0,11.83,0,17.75,0,10.01,0,20.01,0,30.02,0,2.56,1.67,3.97,4.29,3.36,3.78-.88,7.59-2.3,12.2-3.02,4.88-.76,7.32-1.3,13.45-.79,3.53.3,10.86,2.83,12.81,3.15Z"/>
  <path class="cls-3" d="M49.44,79.3v-1.23c0-14.92-.05-29.84.05-44.76.01-2.16-.81-3.82-2.32-5.42-4.9-5.19-11.41-3.04-18.92-4.32-3.32-.56-6.73-.75-10.12-.98-2.53-.18-4.11,1.18-4.11,3.34,0,14.98,0,29.95,0,44.93,0,2.15,1.44,3.38,3.96,3.41,7.19.11,12.8-.66,20.76.64,3.76.62,6.74,1.16,9.55,3.46.32.26.64.52,1.15.93Z"/>
  <path class="cls-6" d="M49.39,79.3v-1.23c0-14.92-.03-29.84.04-44.76.01-2.16-.58-3.82-1.65-5.42-3.48-5.19-8.11-8.07-13.45-9.34-2.36-.56-4.78-.75-7.19-.98-1.8-.18-2.92,1.18-2.92,3.34,0,14.98,0,29.95,0,44.93,0,2.15,1.02,3.38,2.81,3.41,5.11.11,10.07,1.07,14.75,3.65,2.51,1.38,4.79,3.17,6.78,5.47.23.26.46.52.82.93Z"/>
  <path class="cls-1" d="M49.98,81.66c.48-6.04,5.26-7.99,8.08-9.14,5.09-2.07,8.68-2.9,14.18-2.98,2.13-.03,4.05-.6,5.66-1.98,1.66-1.42,2.55-3.18,2.71-5.29.03-.44.02-.88.02-1.33,0-12.05,0-19.73,0-31.78,0-.32,0-.65,0-.99,1.12,0,8.71-.13,9.72.03,1.42.23,2.36,1.52,2.37,2.99,0,5.92,0,11.83,0,17.75,0,10.01,0,20.01,0,30.02,0,2.56-1.67,3.97-4.29,3.36-3.78-.88-7.59-2.3-12.2-3.02-4.88-.76-7.32-1.3-13.45-.79-3.53.3-10.86,2.83-12.81,3.15Z"/>
  <path class="cls-4" d="M50.53,79.3v-1.23c0-14.92.05-29.84-.05-44.76-.01-2.16.81-3.82,2.32-5.42,4.9-5.19,11.41-3.04,18.92-4.32,3.32-.56,6.73-.75,10.12-.98,2.53-.18,4.11,1.18,4.11,3.34,0,14.98,0,29.95,0,44.93,0,2.15-1.44,3.38-3.96,3.41-7.19.11-12.8-.66-20.76.64-3.76.62-6.74,1.16-9.55,3.46-.32.26-.64.52-1.15.93Z"/>
  <path class="cls-5" d="M50.57,79.3v-1.23c0-14.92.03-29.84-.04-44.76-.01-2.16.58-3.82,1.65-5.42,3.48-5.19,8.11-8.07,13.45-9.34,2.36-.56,4.78-.75,7.19-.98,1.8-.18,2.92,1.18,2.92,3.34,0,14.98,0,29.95,0,44.93,0,2.15-1.02,3.38-2.81,3.41-5.11.11-10.07,1.07-14.75,3.65-2.51,1.38-4.79,3.17-6.78,5.47-.23.26-.46.52-.82.93Z"/>
</svg>