<?xml version="1.0" encoding="UTF-8"?>
<svg id="Capa_1" xmlns="http://www.w3.org/2000/svg" xmlns:xlink="http://www.w3.org/1999/xlink" viewBox="0 0 100 100">
  <defs>
    <style>
      .cls-1 {
        fill: #9d9d9c;
        filter: url(#drop-shadow-89);
      }

      .cls-2 {
        fill: #ededed;
        filter: url(#drop-shadow-90);
      }

      .cls-3 {
        fill: #575756;
        filter: url(#drop-shadow-88);
      }
    </style>
    <filter id="drop-shadow-88" x="-12.55" y="-12.19" width="125.04" height="124.32" filterUnits="userSpaceOnUse">
      <feOffset dx="0" dy="0"/>
      <feGaussianBlur result="blur" stdDeviation="5"/>
      <feFlood flood-color="#1d1d1b" flood-opacity=".5"/>
      <feComposite in2="blur" operator="in"/>
      <feComposite in="SourceGraphic"/>
    </filter>
    <filter id="drop-shadow-89" x="7.37" y="7.73" width="84.72" height="84.48" filterUnits="userSpaceOnUse">
      <feOffset dx="0" dy="0"/>
      <feGaussianBlur result="blur-2" stdDeviation="5"/>
      <feFlood flood-color="#1d1d1b" flood-opacity=".5"/>
      <feComposite in2="blur-2" operator="in"/>
      <feComposite in="SourceGraphic"/>
    </filter>
    <filter id="drop-shadow-90" x="20.81" y="21.17" width="57.84" height="57.6" filterUnits="userSpaceOnUse">
      <feOffset dx="0" dy="0"/>
      <feGaussianBlur result="blur-3" stdDeviation="5"/>
      <feFlood flood-color="#1d1d1b" flood-opacity=".5"/>
      <feComposite in2="blur-3" operator="in"/>
      <feComposite in="SourceGraphic"/>
    </filter>
  </defs>
  <path class="cls-3" d="M93.78,41.1c-2.32-.18-4.63-.57-6.95-.83-.4-.04-.73-.3-.88-.67-1.05-2.64-2.14-5.26-3.27-7.87-.16-.38-.1-.81.15-1.13,1.53-1.91,3.05-3.84,4.55-5.78.96-1.24.85-3-.25-4.11-2.7-2.72-5.41-5.43-8.12-8.13-1.11-1.1-2.86-1.21-4.1-.26-1.91,1.48-3.82,2.98-5.7,4.5-.37.3-.87.37-1.3.17-2.54-1.11-5.1-2.17-7.69-3.18-.43-.17-.72-.55-.77-1.01-.26-2.47-.59-4.93-.88-7.4-.15-1.27-.99-1.97-2.01-2.53h-13.61c-1.27.64-1.96,1.59-2.08,3.08-.18,2.33-.57,4.63-.83,6.95-.04.4-.3.73-.67.88-2.63,1.05-5.26,2.13-7.86,3.26-.38.16-.82.11-1.14-.15-1.92-1.54-3.85-3.06-5.79-4.56-1.23-.95-2.98-.84-4.08.26-2.72,2.7-5.43,5.41-8.13,8.13-1.1,1.11-1.21,2.87-.26,4.1,1.48,1.91,2.97,3.82,4.49,5.7.3.37.36.86.17,1.3-1.11,2.54-2.17,5.11-3.18,7.69-.17.43-.56.73-1.03.78-2.45.26-4.88.59-7.33.87-1.47.17-2.58,1.39-2.59,2.87,0,3.98,0,7.97,0,11.95,0,1.44,1.08,2.64,2.5,2.81,2.49.3,4.97.62,7.47.89.43.05.8.32.96.73,1.04,2.61,2.11,5.2,3.23,7.77.23.52.13.82-.18,1.22-1.51,1.89-3,3.79-4.48,5.7-.97,1.26-.86,3.05.26,4.18,2.68,2.69,5.36,5.38,8.04,8.06,1.13,1.13,2.92,1.24,4.18.26,1.91-1.49,3.82-2.98,5.7-4.5.34-.27.8-.34,1.2-.16,2.55,1.11,5.12,2.18,7.71,3.19.45.18.76.59.81,1.07.26,2.45.59,4.9.88,7.35.17,1.44,1.37,2.53,2.83,2.54,3.98,0,7.97,0,11.96,0,1.46,0,2.68-1.1,2.86-2.55.3-2.48.62-4.97.89-7.45.04-.41.31-.75.69-.91,2.62-1.04,5.24-2.12,7.83-3.24.39-.17.84-.11,1.17.16,1.84,1.48,3.7,2.93,5.56,4.39,1.35,1.06,3.28.94,4.49-.27,2.61-2.61,5.22-5.22,7.83-7.84,1.18-1.18,1.29-3.06.26-4.38-1.47-1.88-2.95-3.76-4.45-5.62-.26-.32-.32-.76-.15-1.14,1.12-2.57,2.2-5.16,3.23-7.77.17-.43.55-.72,1.01-.77,2.47-.26,4.93-.59,7.4-.88,1.42-.16,2.13-1.18,2.72-2.38.39-2.2-.07-9.73.32-11.92,0-2.4-.35-3.15-3.58-3.4ZM22.59,50.59c0-.35,0-.71,0-1.07.24-14.31,11.8-26.14,26.1-26.69,15.49-.59,28.24,11.79,28.24,27.15,0,.36,0,.71-.02,1.07-.55,14.24-12.57,25.35-26.82,25.41h-.45c-14.51.06-26.74-11.37-27.05-25.87Z"/>
  <circle class="cls-1" cx="49.76" cy="49.98" r="27.17"/>
  <circle class="cls-2" cx="49.76" cy="49.98" r="13.74"/>
</svg>