<?xml version="1.0" encoding="UTF-8"?>
<svg id="Capa_2" xmlns="http://www.w3.org/2000/svg" viewBox="0 0 73.24 51.51">
  <defs>
    <style>
      .cls-1 {
        fill: #3c3c3b;
      }
    </style>
  </defs>
  <g id="Capa_1-2" data-name="Capa_1">
    <path class="cls-1" d="M73,4.79C72.23,1.83,69.71,0,66.45,0,50.93,0,35.42,0,19.9,0,15.42,0,10.94,0,6.46.01,3.63.02,1.19,1.8.33,4.42c-.13.38-.22.77-.33,1.16v40.35c.04.09.09.17.11.26.87,3.49,3.2,5.32,6.78,5.32,19.88,0,39.76,0,59.63,0,3.94,0,6.72-2.76,6.72-6.7,0-12.71,0-25.41,0-38.12,0-.64-.07-1.29-.23-1.91h0ZM65.72,4.33c-.17.2-.29.36-.43.5-8.9,8.93-17.8,17.86-26.71,26.79-1.24,1.25-2.66,1.25-3.88.03C25.79,22.72,16.89,13.79,7.99,4.86c-.15-.15-.28-.3-.48-.52h58.21ZM4.33,43.96V7.55c6.09,6.03,12.22,12.11,18.37,18.21-6.15,6.09-12.28,12.17-18.37,18.2h0ZM7.45,47.15c6.2-6.14,12.29-12.18,18.43-18.26.84.84,1.73,1.73,2.62,2.62,1.08,1.08,2.15,2.17,3.23,3.24,2.81,2.79,6.98,2.79,9.79,0,1.79-1.78,3.57-3.58,5.35-5.37.18-.18.37-.36.51-.49,6.12,6.07,12.21,12.11,18.41,18.25H7.45ZM68.9,43.99c-6.09-6.04-12.22-12.11-18.35-18.18,6.17-6.11,12.3-12.18,18.35-18.17v36.35Z"/>
  </g>
</svg>