<?xml version="1.0" encoding="UTF-8"?>
<svg id="Capa_2" xmlns="http://www.w3.org/2000/svg" viewBox="0 0 92.02 88.53">
  <defs>
    <style>
      .cls-1 {
        fill: #f6f6f6;
      }
    </style>
  </defs>
  <g id="Capa_1-2" data-name="Capa_1">
    <g>
      <path class="cls-1" d="M92.02,13.08c-.56.85-.92,1.67-1.51,2.26-7.8,7.84-15.62,15.65-23.44,23.46-7.26,7.25-14.49,14.5-21.77,21.71-.75.74-1.73,1.35-2.73,1.69-4.65,1.63-9.33,3.17-14.03,4.66-.72.23-1.63.28-2.33.06-1.35-.44-1.99-1.87-1.54-3.27,1.68-5.14,3.4-10.27,5.14-15.39.19-.55.58-1.07,1-1.48,15.2-15.21,30.4-30.41,45.62-45.61,1.56-1.56,2.98-1.58,4.51-.04,3.24,3.23,6.49,6.45,9.69,9.72.55.57.86,1.38,1.38,2.22ZM31.58,60.14c3.01-.99,5.81-1.88,8.58-2.85.66-.23,1.32-.62,1.81-1.12,10.72-10.69,21.43-21.4,32.15-32.11.25-.25.47-.53.57-.63-2.15-2.18-4.23-4.27-6.33-6.39-.11.09-.26.21-.4.35-10.89,10.88-21.79,21.75-32.66,32.64-.3.3-.54.71-.68,1.11-1,2.91-1.97,5.83-3.03,9ZM84.8,13.15c-2.08-2.07-4.18-4.17-6.18-6.16-1.96,1.96-4.05,4.05-6.11,6.11,2.03,2.04,4.13,4.14,6.16,6.18,2.08-2.08,4.16-4.16,6.12-6.12Z"/>
      <path class="cls-1" d="M69.87,88.53H11.8c-6.51,0-11.8-5.29-11.8-11.8V21.92c0-6.51,5.29-11.8,11.8-11.8h40.34v6H11.8c-3.2,0-5.8,2.6-5.8,5.8v54.81c0,3.2,2.6,5.8,5.8,5.8h58.06c3.2,0,5.8-2.6,5.8-5.8v-37.06h6v37.06c0,6.51-5.29,11.8-11.8,11.8Z"/>
    </g>
  </g>
</svg>