<?xml version="1.0" encoding="UTF-8"?>
<svg id="Capa_1" data-name="Capa 1" xmlns="http://www.w3.org/2000/svg" xmlns:xlink="http://www.w3.org/1999/xlink" viewBox="0 0 920 920">
  <defs>
    <style>
      .cls-1 {
        fill: #4d4d4d;
      }

      .cls-2 {
        fill: #fff;
      }

      .cls-3 {
        fill: #3a93e1;
      }

      .cls-4 {
        filter: url(#drop-shadow-1);
      }

      .cls-4, .cls-5, .cls-6, .cls-7 {
        fill: #c2e0ff;
      }

      .cls-8 {
        fill: #386ea8;
        filter: url(#drop-shadow-3);
      }

      .cls-5 {
        filter: url(#drop-shadow-2);
      }

      .cls-9 {
        fill: #419de9;
      }

      .cls-6 {
        filter: url(#drop-shadow-5);
      }

      .cls-7 {
        filter: url(#drop-shadow-4);
      }
    </style>
    <filter id="drop-shadow-1" x="28.48" y="424.48" width="169" height="267" filterUnits="userSpaceOnUse">
      <feOffset dx="0" dy="0"/>
      <feGaussianBlur result="blur" stdDeviation="14.17"/>
      <feFlood flood-color="#000" flood-opacity=".5"/>
      <feComposite in2="blur" operator="in"/>
      <feComposite in="SourceGraphic"/>
    </filter>
    <filter id="drop-shadow-2" x="722.48" y="424.48" width="169" height="267" filterUnits="userSpaceOnUse">
      <feOffset dx="0" dy="0"/>
      <feGaussianBlur result="blur-2" stdDeviation="14.17"/>
      <feFlood flood-color="#000" flood-opacity=".5"/>
      <feComposite in2="blur-2" operator="in"/>
      <feComposite in="SourceGraphic"/>
    </filter>
    <filter id="drop-shadow-3" x="69.48" y="181.48" width="781" height="617" filterUnits="userSpaceOnUse">
      <feOffset dx="0" dy="0"/>
      <feGaussianBlur result="blur-3" stdDeviation="14.17"/>
      <feFlood flood-color="#000" flood-opacity=".5"/>
      <feComposite in2="blur-3" operator="in"/>
      <feComposite in="SourceGraphic"/>
    </filter>
    <filter id="drop-shadow-4" x="274.48" y="121.48" width="371" height="289" filterUnits="userSpaceOnUse">
      <feOffset dx="0" dy="0"/>
      <feGaussianBlur result="blur-4" stdDeviation="14.17"/>
      <feFlood flood-color="#000" flood-opacity=".5"/>
      <feComposite in2="blur-4" operator="in"/>
      <feComposite in="SourceGraphic"/>
    </filter>
    <filter id="drop-shadow-5" x="221.48" y="543.48" width="480" height="255" filterUnits="userSpaceOnUse">
      <feOffset dx="0" dy="0"/>
      <feGaussianBlur result="blur-5" stdDeviation="14.17"/>
      <feFlood flood-color="#000" flood-opacity=".5"/>
      <feComposite in2="blur-5" operator="in"/>
      <feComposite in="SourceGraphic"/>
    </filter>
  </defs>
  <rect class="cls-4" x="71.53" y="467.56" width="82.81" height="181.08" rx="32.55" ry="32.55"/>
  <rect class="cls-5" x="765.66" y="467.56" width="82.81" height="181.08" rx="32.55" ry="32.55" transform="translate(1614.12 1116.2) rotate(180)"/>
  <path class="cls-8" d="M144.11,224.06h631.78c17.2,0,31.17,13.97,31.17,31.17v418.96c0,45.14-36.64,81.78-81.78,81.78H194.72c-45.14,0-81.78-36.64-81.78-81.78V255.23c0-17.2,13.97-31.17,31.17-31.17Z"/>
  <rect class="cls-2" x="202.95" y="305.74" width="514.1" height="450.23"/>
  <path class="cls-1" d="M529.67,514.18c0,6.02-4.88,10.9-10.9,10.9s-10.9-4.88-10.9-10.9c0-41.09,33.31-74.41,74.41-74.41s74.41,33.31,74.41,74.41c0,6.02-4.88,10.9-10.9,10.9s-10.9-4.88-10.9-10.9c0-29.06-23.56-52.61-52.61-52.61s-52.61,23.56-52.61,52.61Z"/>
  <path class="cls-1" d="M285.1,514.18c0,6.02-4.88,10.9-10.9,10.9s-10.9-4.88-10.9-10.9c0-41.1,33.31-74.41,74.41-74.41s74.41,33.31,74.41,74.41c0,6.02-4.88,10.9-10.9,10.9s-10.9-4.88-10.9-10.9c0-29.06-23.56-52.62-52.61-52.62s-52.61,23.56-52.61,52.62Z"/>
  <polygon class="cls-3" points="196.76 558.1 295.22 609.8 295.22 755.97 196.76 755.97 196.76 558.1"/>
  <polygon class="cls-3" points="723.52 558.1 624.78 609.8 624.78 755.97 723.52 755.97 723.52 558.1"/>
  <polyline class="cls-7" points="317.53 164.03 317.53 302.3 383.27 367.41 460 277.03 536.73 367.41 602.47 302.3 602.47 164.03"/>
  <polygon class="cls-9" points="460 277.03 383.27 367.41 536.73 367.41 460 277.03"/>
  <polyline class="cls-6" points="264.01 755.97 264.01 655.26 461.03 586.46 658.04 655.26 658.04 755.97"/>
</svg>