<?xml version="1.0" encoding="UTF-8"?>
<svg id="Capa_2" xmlns="http://www.w3.org/2000/svg" viewBox="0 0 175.53 254.94">
  <defs>
    <style>
      .cls-1 {
        fill: none;
        stroke: #292929;
        stroke-miterlimit: 10;
        stroke-width: 15px;
      }
    </style>
  </defs>
  <g id="Capa_1-2" data-name="Capa_1">
    <path class="cls-1" d="M87.77,127.02c-32.95,0-59.76-26.81-59.76-59.76S54.82,7.5,87.77,7.5s59.76,26.81,59.76,59.76-26.81,59.76-59.76,59.76Z"/>
    <path class="cls-1" d="M167.93,207.98v-11.09c0-9.6-5.72-18.18-14.57-21.88l-30.13-12.57c-6.48-2.7-13.89-1.61-19.31,2.87l-14.57,12.03c-.92.77-2.26.77-3.18,0l-14.57-12.03c-5.41-4.48-12.82-5.57-19.3-2.87l-30.13,12.57c-8.86,3.7-14.58,12.29-14.58,21.88v11.09h-.09v23.42c0,8.86,7.18,16.04,16.04,16.04h128.46c8.86,0,16.04-7.18,16.04-16.04v-23.42h-.11Z"/>
  </g>
</svg>