<?xml version="1.0" encoding="UTF-8"?>
<svg id="Capa_1" xmlns="http://www.w3.org/2000/svg" viewBox="0 0 100 100">
  <defs>
    <style>
      .cls-1 {
        fill: #4f88a6;
      }
    </style>
  </defs>
  <path class="cls-1" d="M50,92.37c-23.36,0-42.37-19.01-42.37-42.37S26.64,7.63,50,7.63s42.37,19.01,42.37,42.37-19.01,42.37-42.37,42.37ZM50,15.56c-18.99,0-34.44,15.45-34.44,34.44s15.45,34.44,34.44,34.44,34.44-15.45,34.44-34.44S68.99,15.56,50,15.56Z"/>
  <path class="cls-1" d="M56.69,38.41c-1.51-.84-3.05-1.46-4.63-1.83v9.8c7.71,1.99,11.13,4.95,11.07,10.46v.1c0,5.46-4.39,9.34-10.87,9.9v2.78c0,1.23-.99,2.22-2.22,2.22h0c-1.23,0-2.22-.99-2.22-2.22v-2.88c-3.5-.44-6.75-1.56-9.66-3.36-1.35-.84-1.71-2.66-.8-3.96l.03-.05c.87-1.26,2.6-1.57,3.86-.71,2.14,1.45,4.3,2.41,6.77,2.82v-10.05c-7.45-1.89-10.92-4.69-10.92-10.46v-.05c0-5.51,4.34-9.24,10.72-9.8v-.74c0-1.23.99-2.22,2.22-2.22h0c1.23,0,2.22.99,2.22,2.22v.84c2.67.33,5.02,1.13,7.2,2.34,1.37.76,1.81,2.52,1.01,3.86h0c-.78,1.31-2.46,1.73-3.79.99ZM43.13,40.56c0,2.14.97,3.52,4.9,4.75v-9.03c-3.27.36-4.95,2.04-4.9,4.24v.05ZM57.12,57.2c0-2.25-1.12-3.62-5.05-4.8v9.29c3.27-.36,5.05-1.94,5.05-4.39v-.1Z"/>
</svg>