<?xml version="1.0" encoding="UTF-8"?>
<svg id="Capa_2" xmlns="http://www.w3.org/2000/svg" viewBox="0 0 98.56 83.15">
  <defs>
    <style>
      .cls-1 {
        fill: #1d1d1b;
      }
    </style>
  </defs>
  <g id="Capa_1-2" data-name="Capa_1">
    <g>
      <path d="M98.27,50.99c-2.08-4.54-4.16-9.1-6.25-13.64-.47-1.06-1.21-1.55-2.39-1.55-3.76.03-7.52,0-11.28,0-.25,0-.47,0-.75-.03v-5.1c-.03-.4.22-.44.5-.44.84,0,1.65.03,2.45,0,.93-.03,1.58-.47,1.96-1.34.34-.81.12-1.71-.53-2.36-.19-.19-.37-.34-.56-.5-9.85-8.33-19.7-16.66-29.55-24.98-.25-.22-1.34-1.06-2.61-1.06-1.4,0-2.24.81-2.64,1.12-9.94,8.39-19.86,16.78-29.8,25.2-.87.71-1.15,1.62-.81,2.52.31.9,1.12,1.4,2.27,1.4h2.64v5.56h-.78c-3.67,0-7.3.03-10.97,0-1.4-.03-2.21.53-2.77,1.77-1.99,4.44-4.04,8.82-6.06,13.24-.93,2.02,0,3.48,2.24,3.48h3.45v26.16c0,1.86.78,2.64,2.64,2.64h81.2c1.86,0,2.61-.75,2.61-2.64v-26.16h3.73c1.93-.03,2.86-1.55,2.05-3.29ZM20.93,78.77h-10.53v-24.42h10.53v24.42ZM20.93,49.94H5.45c.53-1.12,1.03-2.18,1.49-3.26.93-2.02,1.86-4.01,2.8-6.03.12-.34.25-.59.71-.59,3.36.03,6.71.03,10.07.03.12,0,.25.03.4.03v9.82ZM39.14,77.44v-11.93c0-.31.12-.59.31-.81l9.2-9.88c.19-.22.37-.25.5-.25s.34.03.53.25l9.17,9.88c.19.22.31.5.31.81v11.93c0,.56-.37,1.06-.81,1.06h-18.36c-.47,0-.84-.5-.84-1.06ZM73.32,28.84c.03,16.31.03,32.66.03,49v.93h-9.73c.12-.44.19-.87.19-1.34v-11.93c0-1.49-.56-2.89-1.55-3.98l-9.17-9.88c-2.08-2.24-5.78-2.24-7.86,0l-9.2,9.88c-.99,1.09-1.55,2.49-1.55,3.98v11.93c0,.47.06.93.19,1.37h-9.45v-.81c0-16.38,0-32.78.03-49.16,0-1.21-.16-2.21-1.49-2.8,8.55-7.21,17-14.36,25.51-21.57,8.48,7.18,16.97,14.32,25.51,21.57-1.27.59-1.46,1.58-1.46,2.8ZM88.17,78.77h-10.53v-24.45h10.53v24.45ZM77.64,49.94v-9.79c.19-.03.37-.06.59-.06h9.69c.47,0,.71.12.93.56,1.31,2.89,2.64,5.78,3.95,8.64.09.19.16.37.28.65h-15.44Z"/>
      <path d="M49.24,44.27c-8.09,0-14.64-6.59-14.62-14.7.02-8.09,6.6-14.6,14.73-14.59,8.02.02,14.61,6.61,14.59,14.6-.03,8.18-6.55,14.7-14.7,14.69ZM38.91,29.62c0,5.75,4.65,10.41,10.36,10.39,5.75-.01,10.39-4.64,10.38-10.36,0-5.76-4.65-10.39-10.43-10.4-5.65,0-10.32,4.69-10.31,10.37Z"/>
      <path d="M51.43,27.51c1.24,0,2.39,0,3.54,0,1.38,0,2.32.86,2.34,2.11.01,1.26-.91,2.14-2.29,2.15-1.88.01-3.76.01-5.64,0-1.38,0-2.23-.87-2.24-2.27,0-1.86,0-3.72,0-5.57,0-1.37.88-2.3,2.14-2.3,1.26,0,2.13.93,2.14,2.31.01,1.15,0,2.31,0,3.58Z"/>
      <path class="cls-1" d="M39.42,83.09c.19.06.37.06.56.06h18.36c.19,0,.37,0,.56-.06h-19.48Z"/>
    </g>
  </g>
</svg>