<?xml version="1.0" encoding="UTF-8"?>
<svg id="Capa_1" xmlns="http://www.w3.org/2000/svg" viewBox="0 0 100 100">
  <defs>
    <style>
      .cls-1 {
        fill: #4f88a6;
      }
    </style>
  </defs>
  <path class="cls-1" d="M86.59,31.91H13.41c-5.04,0-9.13-4.1-9.13-9.13v-6.01c0-5.04,4.1-9.13,9.13-9.13h73.19c5.04,0,9.13,4.1,9.13,9.13v6.01c0,5.04-4.1,9.13-9.13,9.13ZM13.41,13.17c-1.98,0-3.59,1.61-3.59,3.59v6.01c0,1.98,1.61,3.59,3.59,3.59h73.19c1.98,0,3.59-1.61,3.59-3.59v-6.01c0-1.98-1.61-3.59-3.59-3.59H13.41Z"/>
  <path class="cls-1" d="M86.59,92.37H13.41c-5.04,0-9.13-4.1-9.13-9.13v-6.01c0-5.04,4.1-9.13,9.13-9.13h73.19c5.04,0,9.13,4.1,9.13,9.13v6.01c0,5.04-4.1,9.13-9.13,9.13ZM13.41,73.63c-1.98,0-3.59,1.61-3.59,3.59v6.01c0,1.98,1.61,3.59,3.59,3.59h73.19c1.98,0,3.59-1.61,3.59-3.59v-6.01c0-1.98-1.61-3.59-3.59-3.59H13.41Z"/>
  <path class="cls-1" d="M86.59,62.14H13.41c-5.04,0-9.13-4.1-9.13-9.13v-6.01c0-5.04,4.1-9.13,9.13-9.13h73.19c5.04,0,9.13,4.1,9.13,9.13v6.01c0,5.04-4.1,9.13-9.13,9.13ZM13.41,43.4c-1.98,0-3.59,1.61-3.59,3.59v6.01c0,1.98,1.61,3.59,3.59,3.59h73.19c1.98,0,3.59-1.61,3.59-3.59v-6.01c0-1.98-1.61-3.59-3.59-3.59H13.41Z"/>
</svg>