<?xml version="1.0" encoding="UTF-8"?>
<svg id="Capa_1" xmlns="http://www.w3.org/2000/svg" viewBox="0 0 100 100">
  <defs>
    <style>
      .cls-1 {
        fill: #4f88a6;
      }
    </style>
  </defs>
  <path class="cls-1" d="M98.65,21.96c-1.04-3.96-4.4-6.4-8.76-6.4-20.75,0-41.5,0-62.25,0-5.99,0-11.98-.02-17.98,0-3.78.02-7.04,2.39-8.2,5.9-.17.51-.29,1.03-.43,1.55v53.96c.05.12.11.23.14.35,1.16,4.66,4.28,7.11,9.07,7.11,26.58,0,53.17,0,79.75,0,5.27,0,8.98-3.69,8.98-8.95,0-16.99,0-33.98-.01-50.97,0-.85-.09-1.73-.31-2.55h0ZM88.91,21.35c-.23.26-.39.47-.57.66-11.9,11.95-23.81,23.89-35.72,35.83-1.66,1.67-3.55,1.68-5.19.04-11.91-11.94-23.81-23.89-35.72-35.83-.19-.19-.37-.4-.65-.7h77.85ZM6.82,74.34V25.65c8.14,8.07,16.34,16.2,24.56,24.35-8.22,8.15-16.43,16.28-24.56,24.34h0ZM10.99,78.62c8.29-8.21,16.44-16.29,24.64-24.41,1.13,1.13,2.32,2.31,3.51,3.5,1.44,1.44,2.87,2.9,4.32,4.34,3.75,3.73,9.33,3.74,13.09,0,2.4-2.38,4.77-4.79,7.16-7.18.24-.24.5-.47.68-.65,8.19,8.12,16.34,16.2,24.62,24.41H10.99ZM93.16,74.39c-8.15-8.08-16.34-16.19-24.54-24.31,8.25-8.17,16.46-16.29,24.54-24.3v48.61Z"/>
</svg>