<?xml version="1.0" encoding="UTF-8"?>
<svg id="Capa_1" xmlns="http://www.w3.org/2000/svg" viewBox="0 0 100 100">
  <defs>
    <style>
      .cls-1 {
        fill: #f6f6f6;
      }
    </style>
  </defs>
  <path class="cls-1" d="M91.8,78.63H8.2c-3.66,0-6.63-2.97-6.63-6.63V28c0-3.66,2.97-6.63,6.63-6.63h83.6c3.66,0,6.63,2.97,6.63,6.63v44c0,3.66-2.97,6.63-6.63,6.63ZM8.2,23.07c-2.72,0-4.93,2.21-4.93,4.93v44c0,2.72,2.21,4.93,4.93,4.93h83.6c2.72,0,4.93-2.21,4.93-4.93V28c0-2.72-2.21-4.93-4.93-4.93H8.2ZM31.58,67.56h-5.38c-1.39,0-2.19-.8-2.19-2.19v-1.15h-4.23c-1.39,0-2.19-.8-2.19-2.19v-4.34c0-1.39.8-2.19,2.19-2.19h9.99s.07,0,.07,0c0,0,.05-.07.05-.22,0-.27-.05-.37-.05-.39h0s-.05-.02-.16-.03l-5.59-.78c-2.79-.42-6.49-1.59-6.49-7.01v-3.9c0-3.98,2.33-6.57,6.42-7.21v-1.33c0-1.39.8-2.19,2.19-2.19h5.38c1.39,0,2.19.8,2.19,2.19v1.15h2.75c1.39,0,2.19.8,2.19,2.19v4.42c0,1.39-.8,2.19-2.19,2.19h-8.65c-.08,0-.15,0-.15.26,0,.31.13.33.25.34l5.54.74c2.81.42,6.53,1.6,6.53,7.01v3.9c0,3.93-2.27,6.53-6.27,7.2v1.34c0,1.39-.8,2.19-2.19,2.19ZM19.78,57.2c-.46,0-.49.03-.49.49v4.34c0,.46.03.49.49.49h5.94v2.86c0,.46.03.48.49.48h5.38c.46,0,.49-.03.49-.48v-2.85l.76-.08c2.51-.26,5.51-1.45,5.51-5.61v-3.9c0-3.24-1.47-4.79-5.07-5.32l-5.52-.74c-1.05-.12-1.74-.92-1.74-2.03s.76-1.96,1.85-1.96h8.65c.46,0,.49-.03.49-.49v-4.42c0-.46-.03-.48-.49-.48h-4.45v-2.86c0-.46-.03-.49-.49-.49h-5.38c-.46,0-.49.03-.49.49v2.85l-.77.07c-2.58.24-5.65,1.4-5.65,5.61v3.9c0,3.29,1.41,4.78,5.03,5.32l5.56.78c.62.07,1.7.45,1.7,2.11,0,1.12-.76,1.93-1.82,1.93h-9.99Z"/>
  <g>
    <path class="cls-1" d="M76.42,54.27c-2.53-2.99-5.87-4.64-9.42-4.64s-6.89,1.65-9.41,4.64l-1.3-1.1c2.85-3.38,6.66-5.24,10.71-5.24s7.87,1.86,10.72,5.24l-1.3,1.1Z"/>
    <path class="cls-1" d="M63.57,60.9l-1.3-1.1c1.25-1.48,2.93-2.3,4.72-2.3s3.47.82,4.73,2.3l-1.3,1.1c-.92-1.09-2.14-1.7-3.43-1.7s-2.5.6-3.42,1.7Z"/>
    <path class="cls-1" d="M83.05,48.38c-4.3-5.08-10-7.89-16.05-7.89s-11.74,2.8-16.04,7.89l-1.3-1.1c4.63-5.47,10.78-8.49,17.34-8.49s12.72,3.01,17.35,8.49l-1.3,1.1Z"/>
  </g>
</svg>