<?xml version="1.0" encoding="UTF-8"?>
<svg id="Capa_1" xmlns="http://www.w3.org/2000/svg" viewBox="0 0 100 100">
  <defs>
    <style>
      .cls-1 {
        fill: #f6f6f6;
      }
    </style>
  </defs>
  <path class="cls-1" d="M50,96.57c-2.43,0-4.62-1.25-5.85-3.35l-3.15-5.38c-1.21-2.07-3.77-2.9-5.96-1.94l-5.71,2.51c-2.23.98-4.73.71-6.7-.72-1.97-1.43-3-3.73-2.76-6.15l.62-6.21c.24-2.38-1.35-4.56-3.69-5.07l-6.09-1.33c-2.38-.52-4.25-2.21-5-4.53-.75-2.31-.23-4.78,1.38-6.6l4.15-4.66c1.59-1.79,1.59-4.48,0-6.27l-4.15-4.66c-1.62-1.82-2.14-4.28-1.38-6.6.75-2.31,2.62-4.01,5-4.53l6.09-1.33c2.34-.51,3.92-2.69,3.69-5.07l-.62-6.2c-.24-2.42.79-4.72,2.76-6.15,1.97-1.43,4.47-1.7,6.7-.72l5.71,2.5c2.19.96,4.75.13,5.96-1.94l3.15-5.38c1.23-2.1,3.42-3.35,5.85-3.35s4.62,1.25,5.85,3.35l3.15,5.38c1.21,2.07,3.77,2.9,5.96,1.94l5.71-2.51c2.23-.98,4.74-.71,6.7.72,1.97,1.43,3,3.73,2.76,6.15l-.62,6.2c-.24,2.38,1.35,4.56,3.69,5.07l6.09,1.33c2.38.52,4.25,2.21,5,4.53.75,2.31.23,4.78-1.38,6.6l-4.15,4.66c-1.59,1.79-1.59,4.48,0,6.27l4.15,4.66c1.62,1.82,2.14,4.28,1.38,6.6-.75,2.31-2.62,4.01-5,4.53l-6.09,1.33c-2.34.51-3.92,2.69-3.69,5.07l.62,6.21c.24,2.42-.79,4.72-2.76,6.15-1.97,1.43-4.47,1.7-6.7.72l-5.71-2.5c-2.19-.96-4.75-.13-5.96,1.94l-3.15,5.38c-1.23,2.1-3.41,3.35-5.85,3.35ZM36.93,81.75c2.92,0,5.74,1.52,7.3,4.19l3.15,5.38c.55.94,1.53,1.5,2.62,1.5s2.07-.56,2.62-1.5l3.15-5.38c2.17-3.71,6.76-5.2,10.7-3.47l5.71,2.5c1,.44,2.12.32,3-.32.88-.64,1.34-1.67,1.23-2.75l-.62-6.21c-.42-4.27,2.42-8.18,6.61-9.1l6.09-1.33c1.07-.23,1.9-.99,2.24-2.03.34-1.04.11-2.14-.62-2.95l-4.15-4.66c-2.85-3.21-2.85-8.04,0-11.25l4.15-4.66c.73-.81.96-1.92.62-2.95-.34-1.04-1.17-1.79-2.24-2.03l-6.09-1.33c-4.19-.92-7.04-4.83-6.61-9.1l.62-6.2c.11-1.08-.35-2.11-1.23-2.75s-2-.76-3-.32l-5.71,2.51c-3.93,1.72-8.53.23-10.7-3.48l-3.15-5.38c-.55-.94-1.53-1.5-2.62-1.5s-2.07.56-2.62,1.5l-3.15,5.38c-2.17,3.7-6.77,5.2-10.7,3.47l-5.71-2.5c-1-.44-2.12-.32-3,.32-.88.64-1.34,1.67-1.23,2.75l.62,6.2c.42,4.27-2.42,8.18-6.61,9.1l-6.09,1.33c-1.07.23-1.9.99-2.24,2.03-.34,1.04-.11,2.14.62,2.95l4.15,4.66c2.85,3.21,2.85,8.04,0,11.25l-4.15,4.66c-.73.81-.96,1.92-.62,2.95.34,1.04,1.17,1.79,2.24,2.03l6.09,1.33c4.19.92,7.04,4.83,6.61,9.1l-.62,6.21c-.11,1.08.35,2.11,1.23,2.75.88.64,2,.76,3,.32l5.71-2.51c1.1-.48,2.26-.71,3.39-.71Z"/>
  <g>
    <line class="cls-1" x1="64.41" y1="35.59" x2="35.59" y2="64.41"/>
    <rect class="cls-1" x="29.62" y="48.13" width="40.75" height="3.74" transform="translate(-20.71 50) rotate(-45)"/>
  </g>
  <circle class="cls-1" cx="40.04" cy="40.04" r="4.44"/>
  <circle class="cls-1" cx="59.96" cy="59.96" r="4.44"/>
</svg>