<?xml version="1.0" encoding="UTF-8"?>
<svg id="Capa_1" xmlns="http://www.w3.org/2000/svg" xmlns:xlink="http://www.w3.org/1999/xlink" viewBox="0 0 100 100">
  <defs>
    <style>
      .cls-1 {
        fill: #fcea10;
      }

      .cls-2 {
        filter: url(#drop-shadow-90);
      }

      .cls-3 {
        fill: #f9b233;
        filter: url(#drop-shadow-88);
      }

      .cls-4 {
        fill: #f39200;
        filter: url(#drop-shadow-89);
      }
    </style>
    <filter id="drop-shadow-88" x="23.24" y="11.43" width="49.68" height="77.04" filterUnits="userSpaceOnUse">
      <feOffset dx="0" dy="0"/>
      <feGaussianBlur result="blur" stdDeviation="3"/>
      <feFlood flood-color="#1d1d1b" flood-opacity=".5"/>
      <feComposite in2="blur" operator="in"/>
      <feComposite in="SourceGraphic"/>
    </filter>
    <filter id="drop-shadow-89" x="1.16" y="-.33" width="56.4" height="100.56" filterUnits="userSpaceOnUse">
      <feOffset dx="0" dy="0"/>
      <feGaussianBlur result="blur-2" stdDeviation="3"/>
      <feFlood flood-color="#1d1d1b" flood-opacity=".5"/>
      <feComposite in2="blur-2" operator="in"/>
      <feComposite in="SourceGraphic"/>
    </filter>
    <filter id="drop-shadow-90" x="43.16" y="28.95" width="55.68" height="42" filterUnits="userSpaceOnUse">
      <feOffset dx="0" dy="0"/>
      <feGaussianBlur result="blur-3" stdDeviation="3"/>
      <feFlood flood-color="#1d1d1b" flood-opacity=".5"/>
      <feComposite in2="blur-3" operator="in"/>
      <feComposite in="SourceGraphic"/>
    </filter>
  </defs>
  <rect class="cls-3" x="32.27" y="20.55" width="31.43" height="58.87" rx="7.83" ry="7.83"/>
  <path class="cls-4" d="M41.12,91.22c-.64,0-1.28-.08-1.92-.25l-23.36-6.24c-3.22-.86-5.47-3.79-5.47-7.12V22.37c0-3.33,2.25-6.26,5.47-7.12l23.36-6.24c2.23-.6,4.56-.13,6.39,1.28,1.83,1.41,2.88,3.54,2.88,5.85v67.71c0,2.31-1.05,4.44-2.88,5.85-1.31,1.01-2.87,1.53-4.47,1.53ZM41.1,83.85,17.73,77.6"/>
  <g class="cls-2">
    <path class="cls-1" d="M89.01,51.58l-8.94,9.63c-.39.42-.93.66-1.49.66h-3.43c-1.87,0-2.81-2.44-1.49-3.87l4.2-4.52h-23.54c-1.15,0-2.08-1-2.08-2.24v-2.52c0-1.24.93-2.24,2.08-2.24h23.55l-4.21-4.53c-1.33-1.43-.39-3.87,1.49-3.87h3.43c.56,0,1.09.24,1.49.66l8.94,9.63c.82.88.82,2.32,0,3.2Z"/>
  </g>
</svg>