<?xml version="1.0" encoding="UTF-8"?>
<svg id="Capa_1" xmlns="http://www.w3.org/2000/svg" viewBox="0 0 370 370">
  <defs>
    <style>
      .cls-1, .cls-2 {
        fill: #f6f6f6;
      }

      .cls-3 {
        fill: none;
      }

      .cls-4, .cls-2 {
        opacity: .42;
      }
    </style>
  </defs>
  <path class="cls-2" d="M185,366.29c-9.47,0-17.98-4.88-22.76-13.06l-12.25-20.95c-4.7-8.04-14.69-11.27-23.21-7.55l-22.23,9.75c-8.68,3.8-18.43,2.75-26.1-2.82-7.67-5.57-11.68-14.52-10.74-23.95l2.4-24.16c.92-9.27-5.25-17.76-14.35-19.75l-23.72-5.18c-9.26-2.02-16.53-8.61-19.45-17.62-2.93-9.01-.91-18.61,5.38-25.69l16.14-18.13c6.19-6.96,6.19-17.45,0-24.41l-16.14-18.13c-6.3-7.08-8.31-16.68-5.38-25.69,2.93-9.01,10.2-15.6,19.45-17.62l23.72-5.18c9.1-1.98,15.27-10.48,14.35-19.75l-2.4-24.15c-.94-9.43,3.08-18.38,10.74-23.95,7.67-5.57,17.41-6.62,26.1-2.81l22.23,9.75c8.52,3.74,18.51.5,23.21-7.54l12.25-20.96c4.78-8.17,13.3-13.06,22.76-13.06s17.99,4.88,22.77,13.06l12.25,20.96c4.7,8.04,14.69,11.28,23.21,7.55l22.23-9.75c8.69-3.8,18.44-2.75,26.1,2.82,7.67,5.57,11.68,14.52,10.74,23.95l-2.4,24.15c-.92,9.27,5.24,17.76,14.35,19.75l23.72,5.18c9.26,2.02,16.53,8.61,19.45,17.62,2.93,9.01.91,18.61-5.38,25.69l-16.14,18.13c-6.19,6.96-6.19,17.45,0,24.41l16.14,18.13c6.3,7.08,8.31,16.68,5.38,25.69-2.93,9.01-10.2,15.6-19.45,17.62l-23.72,5.18c-9.1,1.99-15.27,10.48-14.35,19.75l2.4,24.16c.94,9.43-3.08,18.38-10.74,23.95-7.66,5.57-17.42,6.62-26.1,2.81l-22.23-9.75c-8.52-3.74-18.51-.5-23.21,7.54l-12.25,20.95c-4.78,8.18-13.29,13.06-22.77,13.06ZM134.13,308.61c11.38,0,22.36,5.92,28.43,16.31l12.25,20.95c2.14,3.66,5.95,5.85,10.19,5.85s8.05-2.19,10.19-5.85l12.25-20.95c8.43-14.43,26.33-20.24,41.64-13.53l22.23,9.75c3.89,1.71,8.25,1.24,11.68-1.26,3.43-2.49,5.23-6.5,4.81-10.72l-2.4-24.16c-1.65-16.63,9.41-31.85,25.73-35.42l23.72-5.18c4.15-.9,7.4-3.85,8.71-7.89,1.31-4.03.41-8.33-2.41-11.5l-16.14-18.13c-11.11-12.48-11.11-31.3,0-43.78l16.14-18.13c2.82-3.17,3.72-7.47,2.41-11.5-1.31-4.04-4.57-6.98-8.71-7.89l-23.72-5.18c-16.32-3.56-27.39-18.79-25.73-35.42l2.4-24.15c.42-4.22-1.38-8.23-4.81-10.72-3.43-2.49-7.79-2.97-11.68-1.26l-22.23,9.75c-15.31,6.7-33.2.9-41.64-13.53l-12.25-20.96c-2.14-3.66-5.95-5.85-10.19-5.85s-8.05,2.19-10.19,5.85l-12.25,20.96c-8.43,14.42-26.34,20.24-41.64,13.53l-22.23-9.75c-3.89-1.71-8.25-1.24-11.68,1.26-3.43,2.49-5.23,6.5-4.81,10.72l2.4,24.15c1.65,16.63-9.41,31.86-25.73,35.42l-23.72,5.18c-4.15.9-7.4,3.85-8.71,7.89-1.31,4.03-.41,8.33,2.41,11.5l16.14,18.13c11.11,12.48,11.11,31.3,0,43.78l-16.14,18.13c-2.82,3.17-3.72,7.47-2.41,11.5,1.31,4.04,4.57,6.98,8.71,7.89l23.72,5.18c16.32,3.57,27.39,18.79,25.73,35.42l-2.4,24.16c-.42,4.22,1.38,8.23,4.81,10.72,3.43,2.5,7.8,2.97,11.68,1.26l22.23-9.75c4.29-1.88,8.78-2.78,13.21-2.78Z"/>
  <g class="cls-4">
    <line class="cls-3" x1="211.44" y1="211.44" x2="158.56" y2="158.56"/>
  </g>
  <g class="cls-4">
    <path class="cls-1" d="M201.28,190.43l42.05,42.05c3,3,3,7.85,0,10.85h0c-3,3-7.85,3-10.85,0l-42.05-42.05c-3-3-7.85-3-10.85,0l-42.05,42.05c-3,3-7.85,3-10.85,0h0s0,0,0,0c-3-2.99-3-7.85,0-10.85l42.05-42.05c3-3,3-7.85,0-10.85l-42.05-42.05c-3-3-3-7.85,0-10.85h0s0-.02,0-.02c3-2.99,7.85-2.99,10.85,0l42.05,42.05c3,3,7.85,3,10.85,0l42.05-42.05c3-3,7.86-2.99,10.85,0h0s0,0,0,0c2.99,3,2.99,7.85,0,10.85l-42.05,42.05c-3,3-3,7.85,0,10.85Z"/>
  </g>
</svg>