<?xml version="1.0" encoding="UTF-8"?>
<svg id="Capa_1" xmlns="http://www.w3.org/2000/svg" viewBox="0 0 100 100">
  <defs>
    <style>
      .cls-1 {
        fill: #f6f6f6;
      }
    </style>
  </defs>
  <path class="cls-1" d="M91.98,41.4c-2.25-.18-4.49-.55-6.73-.8-.38-.04-.71-.29-.85-.65-1.02-2.56-2.07-5.1-3.16-7.62-.16-.36-.1-.78.15-1.09,1.48-1.85,2.95-3.72,4.41-5.59.93-1.2.82-2.9-.25-3.98-2.61-2.63-5.24-5.25-7.87-7.87-1.07-1.07-2.77-1.17-3.97-.25-1.85,1.44-3.7,2.88-5.52,4.36-.36.29-.84.35-1.26.17-2.46-1.08-4.94-2.1-7.44-3.08-.41-.16-.7-.54-.74-.98-.25-2.39-.57-4.78-.85-7.16-.14-1.23-.95-1.91-1.95-2.45h-13.18c-1.23.62-1.9,1.54-2.01,2.98-.18,2.25-.55,4.49-.8,6.73-.04.38-.29.71-.65.85-2.55,1.02-5.09,2.07-7.61,3.15-.37.16-.79.1-1.11-.15-1.86-1.49-3.73-2.96-5.61-4.42-1.19-.92-2.89-.81-3.95.25-2.63,2.62-5.25,5.24-7.87,7.87-1.07,1.07-1.17,2.78-.25,3.97,1.43,1.85,2.88,3.7,4.35,5.52.29.36.35.84.17,1.26-1.08,2.46-2.1,4.95-3.08,7.45-.16.42-.55.71-1,.76-2.37.25-4.73.57-7.1.84-1.42.16-2.5,1.35-2.5,2.78,0,3.86,0,7.72,0,11.58,0,1.39,1.04,2.55,2.42,2.72,2.41.29,4.82.6,7.23.86.42.04.77.31.93.7,1,2.52,2.04,5.03,3.13,7.52.22.51.13.8-.18,1.18-1.46,1.83-2.91,3.67-4.34,5.52-.94,1.22-.83,2.95.25,4.04,2.59,2.61,5.19,5.21,7.79,7.81,1.09,1.09,2.83,1.2,4.05.25,1.85-1.44,3.69-2.89,5.52-4.36.33-.27.77-.33,1.16-.16,2.47,1.07,4.96,2.11,7.47,3.09.44.17.74.57.79,1.03.25,2.38.57,4.74.85,7.12.16,1.4,1.33,2.45,2.74,2.46,3.86,0,7.72,0,11.58,0,1.42,0,2.6-1.07,2.77-2.47.29-2.41.6-4.81.86-7.22.04-.39.3-.73.67-.88,2.54-1.01,5.07-2.05,7.58-3.14.38-.16.81-.11,1.13.15,1.78,1.43,3.58,2.84,5.38,4.25,1.31,1.02,3.18.91,4.35-.26,2.53-2.53,5.05-5.06,7.58-7.59,1.14-1.15,1.25-2.96.25-4.24-1.43-1.82-2.85-3.64-4.31-5.45-.25-.31-.31-.74-.15-1.11,1.08-2.49,2.13-5,3.13-7.53.16-.41.54-.7.98-.74,2.39-.25,4.78-.58,7.17-.85,1.38-.16,2.06-1.14,2.63-2.3.37-2.13.73-4.17,1.11-6.29-.49-5.47-1.15-8.3-4.27-8.55ZM55.29,75.61v-9.59c0-.66.4-1.24,1.01-1.52,5.61-2.62,9.51-8.3,9.51-14.9,0-5.99-3.2-11.21-7.98-14.09-1.11-.67-2.53.18-2.53,1.48v14.75c0,.59-.31,1.13-.81,1.44l-4.28,2.62c-.52.32-1.18.33-1.71.03l-4.03-2.29c-.53-.3-.85-.86-.85-1.46v-15.18c0-1.29-1.4-2.13-2.51-1.49-4.89,2.85-8.18,8.13-8.18,14.2,0,6.67,3.97,12.39,9.67,14.97.61.28,1.02.86,1.02,1.53v9.55c-11.76-2.63-20.56-13.11-20.56-25.66,0-14.53,11.78-26.31,26.31-26.31s26.31,11.78,26.31,26.31c0,12.49-8.71,22.92-20.37,25.61Z"/>
</svg>