<?xml version="1.0" encoding="UTF-8"?>
<svg id="Capa_2" xmlns="http://www.w3.org/2000/svg" viewBox="0 0 152.79 153.7">
  <defs>
    <style>
      .cls-1 {
        fill: #212121;
      }
    </style>
  </defs>
  <g id="Capa_1-2" data-name="Capa_1">
    <path class="cls-1" d="M140.92,145.37l-.04-.05c-6.34,6.23-13.83,9.79-23.43,7.85-4.11-.83-23.26-10.59-28.02-13.25-28.56-15.95-52.77-38.28-70.04-66.13C14.75,66.32.82,41.3.1,33.72-1.01,21.96,7.5,12.08,10.24,10.33,12.33,7.29,19.78.49,22.24.13c2.63-.38,5.59.08,7.84,1.51,1.66,1.06,26.77,26.23,27.86,27.87,3.9,5.86-3.79,15.38-8.92,20.19h0c-13.21,16.66,27.67,52.04,40.41,56.48,8.61,3,12.76-.96,14.91-2.12,2.81-3.62,10.29-10.04,13.11-10.23.87-.06,3.77.33,4.52.6,1.95.7,27.86,26.16,29.67,28.77,4.59,6.6-5.58,17.66-10.72,22.17Z"/>
  </g>
</svg>