<?xml version="1.0" encoding="UTF-8"?>
<svg id="Capa_1" xmlns="http://www.w3.org/2000/svg" viewBox="0 0 100 100">
  <defs>
    <style>
      .cls-1 {
        fill: #f6f6f6;
      }
    </style>
  </defs>
  <path class="cls-1" d="M99.8,80.55c-.61,1.74-1.62,3.09-3.52,3.55-.4.1-.83.14-1.25.14-4.08,0-8.17.01-12.25,0-2.78,0-4.76-1.99-4.77-4.78,0-.97,0-1.93,0-2.95H22c0,.93,0,1.89,0,2.85,0,2.92-1.96,4.87-4.87,4.88-4.02,0-8.04,0-12.06,0-2.91,0-4.86-1.96-4.86-4.89,0-8.66-.05-17.31.02-25.97.04-4.81,2.06-8.75,5.72-11.84,1.58-1.34,3.23-2.6,4.85-3.9.19-.15.36-.33.63-.58-1.79-.37-3.45-.72-5.12-1.05-.98-.19-1.44-.76-1.43-1.76.02-1.43,0-2.85,0-4.28,0-1.18.55-1.75,1.7-1.75,2.5-.01,4.99-.01,7.49,0,1.11,0,1.67.57,1.69,1.67.02.73,0,1.47,0,2.2.09.04.18.07.27.11.74-1.22,1.57-2.41,2.21-3.68.93-1.84,1.7-3.77,2.6-5.63,2.22-4.59,5.86-7.08,10.99-7.1,12.19-.04,24.38-.06,36.57.01,4.84.03,8.36,2.42,10.56,6.7,1.36,2.64,2.59,5.35,3.92,8.01.3.59.76,1.1,1.35,1.61,0-.72,0-1.45,0-2.17.02-1.16.57-1.71,1.74-1.71,2.46-.01,4.93-.01,7.39,0,1.18,0,1.74.55,1.75,1.71.01,1.46,0,2.92,0,4.38,0,.96-.46,1.51-1.38,1.7-1.67.34-3.35.69-5.19,1.07.39.33.69.59,1,.84,1.41,1.14,2.82,2.28,4.25,3.4,3.17,2.5,4.98,5.8,5.8,9.7.04.18.13.36.19.54v28.98ZM3.38,60.94c-.03.19-.05.29-.05.38,0,2.37-.02,4.73,0,7.1.02,2.94,2.02,4.91,4.97,4.93,1.98.01,3.96,0,5.93,0,1.59,0,3.35.4,4.71-.16,1.33-.54,2.25-2.08,3.37-3.16,1.97-1.92,4.31-2.91,7.08-2.91,13.49,0,26.97,0,40.46,0,2.8,0,5.17,1.02,7.15,2.97.95.93,1.86,1.9,2.83,2.81.25.24.66.43,1,.43,3.7.03,7.39.04,11.09,0,2.48-.02,4.32-1.61,4.7-4.06.14-.89.07-1.81.08-2.72,0-1.87,0-3.74,0-5.59h-1.56c0,.59,0,1.1,0,1.62-.03,3.32-2.76,6.06-6.07,6.09-1.56.01-3.11.01-4.67,0-1.07,0-1.71-.61-1.71-1.56,0-.95.64-1.53,1.72-1.54,1.26-.01,2.53,0,3.79,0,2.88,0,4.3-1.77,3.69-4.62-2.67-.22-5.23-.09-7.38,1.84-.62.56-1.58.37-2.1-.23-.52-.6-.58-1.62.09-2.09,1.24-.85,2.51-1.84,3.92-2.2,1.78-.46,3.71-.39,5.57-.46,1.54-.06,3.09-.01,4.55-.01v-6.43c-1.76,1.68-3.69,1.8-5.71,1.77-3.11-.05-6.23-.12-9.33.03-1.88.09-3.35-.36-4.46-1.89-.15-.2-.37-.34-.73-.67-.4.48-.79.92-1.14,1.38-.71.94-1.64,1.18-2.8,1.17-5.38-.06-10.76-.01-16.14-.04-.64,0-1.08.18-1.52.64-1.09,1.15-2.23,2.26-3.36,3.38-.96.94-1.72.94-2.68,0-1.15-1.14-2.27-2.32-3.46-3.42-.34-.31-.88-.55-1.33-.56-5.06-.04-10.12-.11-15.17.02-1.94.05-3.48-.33-4.63-1.94-.12-.18-.32-.3-.62-.57-.44.48-.87.91-1.25,1.38-.68.86-1.53,1.13-2.63,1.11-3.44-.06-6.87-.06-10.31-.01-2.04.03-4.02-.07-5.8-1.77v6.43c2.61,0,5.23-.05,7.86.01,2.28.06,4.28.95,5.99,2.44.79.68.87,1.64.29,2.32-.59.69-1.54.74-2.33.06-2.13-1.83-4.64-1.87-7.28-1.65,0,.28,0,.51,0,.73-.02,2.68,1.15,3.87,3.82,3.87,1.26,0,2.53,0,3.79,0,1.07.01,1.72.6,1.72,1.55,0,.95-.64,1.55-1.71,1.56-1.52.01-3.05.01-4.57,0-2.84-.02-5.31-1.9-5.95-4.66-.23-.99-.21-2.03-.31-3.09h-1.4ZM49.99,54.08c1.19-1.21,2.18-2.33,3.3-3.31.46-.4,1.17-.72,1.78-.73,4.31-.06,8.62-.03,12.93-.03,1.55,0,3.28.4,4.62-.15,1.33-.55,2.21-2.12,3.39-3.14.79-.68,1.67-1.32,2.62-1.73,2.61-1.13,5.27-2.13,7.91-3.19.59-.23,1.17-.49,1.57-.66-1.9-1.97-3.81-3.89-5.63-5.9-.53-.59-1.02-.82-1.8-.81-19.83.02-39.67.05-59.5-.03-1.98,0-3.39.36-4.66,2.04-1.3,1.73-3.07,3.1-4.68,4.67,1.89.76,3.79,1.65,5.78,2.29,3.63,1.16,6.74,3.03,9.18,6,.29.35.92.58,1.4.59,5.61.04,11.21,0,16.82.06.57,0,1.26.31,1.7.69,1.13,1.01,2.14,2.15,3.3,3.34ZM20.44,31.28h59.11c-1.16-2.52-2.24-5-3.44-7.42-1.57-3.18-4.24-4.92-7.75-4.94-12.25-.07-24.49-.05-36.74-.01-3.1.01-5.67,1.42-7.21,4.05-1.54,2.63-2.65,5.5-3.98,8.32ZM23.62,73.27h52.01c-1.58-1.95-3.49-3.03-5.93-3.03-13.42,0-26.83-.01-40.25,0-2.41,0-4.32,1.09-5.84,3.02ZM18.88,76.46c-3.71,0-7.3.09-10.89-.05-1.3-.05-2.59-.64-3.88-1.01-.25-.07-.47-.24-.79-.41,0,1.56-.02,2.99,0,4.41.02,1.07.64,1.71,1.7,1.71,4.05.02,8.1.02,12.15,0,1.02,0,1.65-.62,1.69-1.62.04-.97,0-1.93,0-3.04ZM81.13,76.46c0,1.1-.04,2.1.01,3.09.05.95.67,1.56,1.64,1.57,4.08.02,8.16.02,12.24,0,.79,0,1.5-.4,1.55-1.19.11-1.61.03-3.24.03-4.98-1.76,1.27-3.63,1.57-5.62,1.53-3.24-.06-6.47-.02-9.86-.02ZM21.25,48.39c-.13-.09-.2-.15-.29-.19-3.9-1.57-7.79-3.14-11.7-4.67-.24-.09-.69-.05-.85.12-1.07,1.11-2.12,2.25-3.1,3.44-.2.25-.2.81-.08,1.15.47,1.38,1.62,1.76,2.93,1.77,3.34.02,6.68-.08,10.01.05,1.43.05,2.31-.5,3.07-1.66ZM78.6,48.38c.86.64,1.15,1.65,2.31,1.64,3.63-.03,7.26,0,10.89-.03.6,0,1.24-.13,1.78-.37,1.28-.57,1.68-1.91.85-2.99-.78-1.02-1.73-1.91-2.61-2.85-.39-.42-.78-.41-1.3-.19-2.18.91-4.37,1.76-6.56,2.64-1.73.69-3.45,1.39-5.35,2.16ZM7.99,31.37c0,.49-.05.89.02,1.26.04.23.25.56.44.6,1.37.3,2.75.55,4.15.81v-2.67h-4.61ZM87.44,31.36v2.7c1.37-.27,2.73-.51,4.08-.81.2-.05.44-.35.48-.56.08-.42.02-.87.02-1.32h-4.59Z"/>
</svg>